<mxfile host="app.diagrams.net" modified="2024-03-19T14:29:33.517Z" agent="Mozilla/5.0 (Windows NT 10.0; Win64; x64) AppleWebKit/537.36 (KHTML, like Gecko) Chrome/121.0.0.0 Safari/537.36" version="24.0.6" etag="4hOt7Wk3GARTVbP-KrZQ" type="github">
  <diagram name="Trang-1" id="hgOyFS0Tn7y0IJl5TFGv">
    <mxGraphModel>
      <root>
        <mxCell id="0" />
        <mxCell id="1" parent="0" />
      </root>
    </mxGraphModel>
  </diagram>
</mxfile>
